# This file uses meters as units for non-parametric coordinates.

mtllib Box_Small_Blockout.mtl
g default
v -31.079315 -31.079315 31.079315
v 31.079315 -31.079315 31.079315
v -31.079315 31.079315 31.079315
v 31.079315 31.079315 31.079315
v -31.079315 31.079315 -31.079315
v 31.079315 31.079315 -31.079315
v -31.079315 -31.079315 -31.079315
v 31.079315 -31.079315 -31.079315
v -28.739290 31.079315 28.739290
v 28.739290 31.079315 28.739290
v 28.739290 31.079315 -28.739290
v -28.739290 31.079315 -28.739290
v -28.739290 -29.256712 28.739290
v 28.739290 -29.256712 28.739290
v 28.739290 -29.256712 -28.739290
v -28.739290 -29.256712 -28.739290
v 31.028229 31.365171 29.711037
v 31.028229 31.365171 -29.711037
v 28.790377 32.049076 -27.474031
v 28.790377 32.049076 27.474031
v 31.996740 32.157322 28.544556
v 31.996740 32.157322 -28.544556
v 29.909676 33.215561 -27.474031
v 29.909676 33.215561 27.474031
v 59.296780 32.303997 28.544556
v 59.296780 32.303997 -28.544556
v 59.050137 33.338909 -27.474031
v 59.050137 33.338905 27.474031
v -29.109016 32.309586 -30.924953
v 29.109016 32.309586 -30.924953
v -26.917341 32.881809 -28.893654
v 26.917341 32.881809 -28.893654
v -29.109016 32.741833 -32.497696
v 29.109016 32.741833 -32.497696
v -26.917341 34.164730 -30.939180
v 26.917341 34.164730 -30.939180
v -29.109016 32.741833 -58.791882
v 29.109016 32.741833 -58.791882
v -26.917341 34.164730 -58.791866
v 26.917341 34.164730 -58.791866
v -31.045609 31.826548 30.193060
v -31.045609 31.826548 -30.193060
v -28.772999 32.384186 27.919762
v -28.772999 32.384186 -27.919762
v -31.983164 31.807148 30.193060
v -31.983164 31.807148 -30.193060
v -30.438755 33.565136 27.919762
v -30.438755 33.565136 -27.919762
v -55.397884 31.807148 30.193060
v -55.397884 31.807148 -30.193060
v -55.397865 33.565136 27.919762
v -55.397865 33.565136 -27.919762
v -30.356260 32.817764 31.077114
v 30.356260 32.817764 31.077114
v 28.070675 32.961327 28.741493
v -28.070675 32.961327 28.741493
v -30.356260 33.153679 31.710970
v 30.356260 33.153679 31.710970
v 28.070675 34.044338 29.547073
v -28.070675 34.044338 29.547073
v -30.356260 33.153679 60.202797
v 30.356260 33.153679 60.202797
v 28.070675 34.044338 60.202770
v -28.070675 34.044338 60.202770
vt 0.259101 0.361572
vt 0.511251 0.361572
vt 0.511251 0.613722
vt 0.259101 0.613722
vt 0.505701 0.614882
vt 0.264651 0.614882
vt 0.500969 0.618095
vt 0.269383 0.618095
vt 0.513020 0.258419
vt 0.764308 0.258419
vt 0.764308 0.509708
vt 0.513020 0.509708
vt 0.760726 0.512729
vt 0.516602 0.512729
vt 0.984583 0.234065
vt 0.984583 0.000062
vt 0.988825 0.004450
vt 0.988825 0.229677
vt 0.963855 0.244174
vt 0.963855 0.000052
vt 0.970962 0.009242
vt 0.970962 0.234984
vt 0.855012 0.244865
vt 0.621842 0.244865
vt 0.621842 0.000104
vt 0.855012 0.000104
vt 0.849879 0.248799
vt 0.626975 0.248799
vt 0.849879 0.253531
vt 0.626975 0.253531
vt 0.243541 0.370687
vt 0.009527 0.370687
vt 0.009527 0.125039
vt 0.243541 0.125039
vt 0.240204 0.375999
vt 0.012864 0.375999
vt 0.253068 0.370687
vt 0.249460 0.373729
vt 0.240204 0.380807
vt 0.012864 0.380807
vt 0.000000 0.370687
vt 0.003608 0.373729
vt 0.756574 0.520342
vt 0.988942 0.520342
vt 0.988942 0.752709
vt 0.756574 0.752709
vt 0.253919 0.618095
vt 0.505206 0.618095
vt 0.505206 0.869383
vt 0.253919 0.869383
vt 0.254156 0.115472
vt 0.244588 0.125040
vt 0.239414 0.124831
vt 0.248561 0.115681
vt 0.253525 0.123528
vt 0.245219 0.132490
vt 0.239414 0.120255
vt 0.243792 0.111721
vt 0.259955 0.123528
vt 0.253583 0.132490
vt 0.239414 0.001104
vt 0.243792 0.000096
vt 0.367468 0.123528
vt 0.367468 0.132490
vt 0.245219 0.352611
vt 0.253583 0.352611
vt 0.014741 0.120255
vt 0.014741 0.001104
vt 0.367468 0.352611
vt 0.253525 0.361572
vt 0.259955 0.361572
vt 0.010364 0.111721
vt 0.010364 0.000096
vt 0.367468 0.361572
vt 0.254156 0.369628
vt 0.244588 0.360060
vt 0.014741 0.124831
vt 0.005595 0.115681
vt 0.009568 0.125040
vt 0.000000 0.115472
vt 0.621842 0.995192
vt 0.621842 0.764397
vt 0.732208 0.764397
vt 0.732208 0.995192
vt 0.620612 0.764397
vt 0.620612 1.000000
vt 0.614248 1.000000
vt 0.614248 0.764397
vt 0.507838 1.000000
vt 0.507838 0.764397
vt 0.994938 0.752709
vt 0.994938 0.996832
vt 0.991147 0.996832
vt 0.991147 0.752709
vt 0.896489 0.996832
vt 0.896489 0.752709
vt 0.956988 0.009390
vt 0.956988 0.237488
vt 0.855033 0.237488
vt 0.855033 0.009390
vt 0.950679 0.246774
vt 0.855033 0.246774
vt 0.950679 0.000104
vt 0.855033 0.000104
vt 0.963792 0.237488
vt 0.954509 0.246774
vt 0.954509 0.000104
vt 0.963792 0.009390
vt 0.756574 0.966399
vt 0.756574 0.752709
vt 0.758805 0.752709
vt 0.758805 0.966399
vt 0.892203 0.752709
vt 0.892203 0.966399
vt 0.902845 0.253531
vt 0.910605 0.261727
vt 0.766938 0.261727
vt 0.766938 0.253531
vt 0.905118 0.253531
vt 0.913493 0.261727
vt 0.910605 0.463045
vt 0.766938 0.463045
vt 0.913493 0.463045
vt 0.902845 0.471241
vt 0.766938 0.471241
vt 0.905118 0.471241
vt 0.367923 0.000104
vt 0.619210 0.000104
vt 0.619210 0.251391
vt 0.367923 0.251391
vt 0.616287 0.258419
vt 0.370846 0.258419
vt 0.000000 0.385781
vt 0.251306 0.385781
vt 0.251306 0.637087
vt 0.000000 0.637087
vt 0.007966 0.380807
vt 0.243340 0.380807
vt 0.989765 0.245445
vt 0.989765 -0.000000
vt 0.993366 0.009240
vt 0.993366 0.236205
vt 0.979971 0.000036
vt 0.979971 0.235393
vt 0.974219 0.226533
vt 0.974219 0.008896
vt 0.522485 0.520342
vt 0.754982 0.520342
vt 0.754982 0.764397
vt 0.522485 0.764397
vt 0.525189 0.512729
vt 0.752278 0.512729
vt 0.513020 0.520342
vt 0.515944 0.513310
vt 0.764447 0.520342
vt 0.761523 0.513310
vt 0.232379 0.881019
vt 0.000000 0.881019
vt 0.000000 0.637087
vt 0.232379 0.637087
vt 0.225014 0.888306
vt 0.007366 0.888306
vn 0.000000 0.000000 1.000000
vn 0.000000 0.000000 1.000000
vn 0.000000 0.000000 1.000000
vn 0.000000 0.000000 1.000000
vn 0.000000 1.000000 0.000000
vn 0.000000 1.000000 0.000000
vn 0.000000 1.000000 0.000000
vn 0.000000 1.000000 0.000000
vn 0.000000 0.000000 -1.000000
vn 0.000000 0.000000 -1.000000
vn 0.000000 0.000000 -1.000000
vn 0.000000 0.000000 -1.000000
vn 0.000000 -1.000000 0.000000
vn 0.000000 -1.000000 0.000000
vn 0.000000 -1.000000 0.000000
vn 0.000000 -1.000000 0.000000
vn 1.000000 0.000000 0.000000
vn 1.000000 0.000000 0.000000
vn 1.000000 0.000000 0.000000
vn 1.000000 0.000000 0.000000
vn -1.000000 0.000000 0.000000
vn -1.000000 0.000000 0.000000
vn -1.000000 0.000000 0.000000
vn -1.000000 0.000000 0.000000
vn 0.000000 0.000030 1.000000
vn 0.000000 0.000030 1.000000
vn 0.000000 0.000030 1.000000
vn 0.000000 0.000030 1.000000
vn 0.972757 0.231828 0.000000
vn 0.972757 0.231828 0.000000
vn 0.972757 0.231828 0.000000
vn 0.972757 0.231828 0.000000
vn 0.000000 0.000011 -1.000000
vn 0.000000 0.000011 -1.000000
vn 0.000000 0.000011 -1.000000
vn 0.000000 0.000011 -1.000000
vn -1.000000 0.000011 0.000000
vn -1.000000 0.000011 0.000000
vn -1.000000 0.000011 0.000000
vn -1.000000 0.000011 0.000000
vn 0.000000 0.000000 -1.000000
vn 0.000000 0.000000 -1.000000
vn 0.000000 0.000000 -1.000000
vn 0.000000 0.000000 -1.000000
vn -1.000000 0.000000 0.000000
vn -1.000000 0.000000 0.000000
vn -1.000000 0.000000 0.000000
vn -1.000000 0.000000 0.000000
vn 0.000000 0.000000 1.000000
vn 0.000000 0.000000 1.000000
vn 0.000000 0.000000 1.000000
vn 0.000000 0.000000 1.000000
vn 1.000000 0.000000 0.000000
vn 1.000000 0.000000 0.000000
vn 1.000000 0.000000 0.000000
vn 1.000000 0.000000 0.000000
vn 0.984404 0.175923 0.000000
vn 0.984404 0.175923 0.000000
vn 0.984404 0.175923 0.000000
vn 0.984404 0.175923 0.000000
vn -0.283330 0.865666 -0.412731
vn -0.283330 0.865666 -0.412731
vn -0.283330 0.865666 -0.412731
vn -0.283330 0.865666 -0.412731
vn -0.998615 0.052609 0.000000
vn -0.998615 0.052609 0.000000
vn -0.998615 0.052609 0.000000
vn -0.998615 0.052609 0.000000
vn -0.283331 0.865666 0.412730
vn -0.283331 0.865666 0.412730
vn -0.283331 0.865666 0.412730
vn -0.283331 0.865666 0.412730
vn 0.633110 -0.774062 0.000000
vn 0.633110 -0.774062 0.000000
vn 0.633110 -0.774062 0.000000
vn 0.633110 -0.774062 0.000000
vn -0.252851 0.679629 -0.688600
vn -0.252851 0.679629 -0.688600
vn -0.252851 0.679629 -0.688600
vn -0.252851 0.679629 -0.688600
vn -0.721550 0.692362 0.000000
vn -0.721550 0.692362 0.000000
vn -0.721550 0.692362 0.000000
vn -0.721550 0.692362 0.000000
vn -0.252851 0.679629 0.688601
vn -0.252851 0.679629 0.688601
vn -0.252851 0.679629 0.688601
vn -0.252851 0.679629 0.688601
vn 0.005373 -0.999986 0.000000
vn 0.005373 -0.999986 0.000000
vn 0.005373 -0.999986 0.000000
vn 0.005373 -0.999986 0.000000
vn -0.003412 0.713193 -0.700960
vn -0.003412 0.713193 -0.700960
vn -0.003412 0.713193 -0.700960
vn -0.003412 0.713193 -0.700960
vn -0.004233 0.999991 0.000000
vn -0.004233 0.999991 0.000000
vn -0.004233 0.999991 0.000000
vn -0.004233 0.999991 0.000000
vn -0.003412 0.713194 0.700958
vn -0.003412 0.713194 0.700958
vn -0.003412 0.713194 0.700958
vn -0.003412 0.713194 0.700958
vn 0.000000 0.124494 -0.992220
vn 0.000000 0.124494 -0.992220
vn 0.000000 0.124494 -0.992220
vn 0.000000 0.124494 -0.992220
vn -0.548351 0.685672 0.478713
vn -0.548351 0.685672 0.478713
vn -0.548351 0.685672 0.478713
vn -0.548351 0.685672 0.478713
vn 0.000000 0.085327 0.996353
vn 0.000000 0.085327 0.996353
vn 0.000000 0.085327 0.996353
vn 0.000000 0.085327 0.996353
vn 0.548351 0.685672 0.478712
vn 0.548351 0.685672 0.478712
vn 0.548351 0.685672 0.478712
vn 0.548351 0.685672 0.478712
vn 0.000000 -0.964246 -0.265010
vn 0.000000 -0.964246 -0.265010
vn 0.000000 -0.964246 -0.265010
vn 0.000000 -0.964246 -0.265010
vn -0.606135 0.718702 0.340687
vn -0.606135 0.718702 0.340687
vn -0.606135 0.718702 0.340687
vn -0.606135 0.718702 0.340687
vn 0.000000 0.847166 0.531329
vn 0.000000 0.847166 0.531329
vn 0.000000 0.847166 0.531329
vn 0.000000 0.847166 0.531329
vn 0.606135 0.718702 0.340687
vn 0.606135 0.718702 0.340687
vn 0.606135 0.718702 0.340687
vn 0.606135 0.718702 0.340687
vn 0.000000 -1.000000 0.000000
vn 0.000000 -1.000000 0.000000
vn 0.000000 -1.000000 0.000000
vn 0.000000 -1.000000 0.000000
vn -0.544533 0.838739 0.000000
vn -0.544533 0.838739 0.000000
vn -0.544533 0.838739 0.000000
vn -0.544533 0.838739 0.000000
vn 0.000000 1.000000 0.000000
vn 0.000000 1.000000 0.000000
vn 0.000000 1.000000 0.000000
vn 0.000000 1.000000 0.000000
vn 0.544533 0.838739 0.000000
vn 0.544533 0.838739 0.000000
vn 0.544533 0.838739 0.000000
vn 0.544533 0.838739 0.000000
vn -0.998984 0.045061 0.000000
vn -0.998984 0.045061 0.000000
vn -0.998984 0.045061 0.000000
vn -0.998984 0.045061 0.000000
vn 0.568955 0.525686 0.632412
vn 0.568955 0.525686 0.632412
vn 0.568955 0.525686 0.632412
vn 0.568955 0.525686 0.632412
vn 0.999666 0.025826 0.000000
vn 0.999666 0.025826 0.000000
vn 0.999666 0.025826 0.000000
vn 0.999666 0.025826 0.000000
vn 0.568955 0.525686 -0.632412
vn 0.568955 0.525686 -0.632412
vn 0.568955 0.525686 -0.632412
vn 0.568955 0.525686 -0.632412
vn 0.020687 -0.999786 0.000000
vn 0.020687 -0.999786 0.000000
vn 0.020687 -0.999786 0.000000
vn 0.020687 -0.999786 0.000000
vn 0.317059 0.710606 0.628102
vn 0.317059 0.710606 0.628102
vn 0.317059 0.710606 0.628102
vn 0.317059 0.710606 0.628102
vn 0.578356 0.815784 0.000000
vn 0.578356 0.815784 0.000000
vn 0.578356 0.815784 0.000000
vn 0.578356 0.815784 0.000000
vn 0.317059 0.710606 -0.628102
vn 0.317059 0.710606 -0.628102
vn 0.317059 0.710606 -0.628102
vn 0.317059 0.710606 -0.628102
vn 0.000000 -1.000000 0.000000
vn 0.000000 -1.000000 0.000000
vn 0.000000 -1.000000 0.000000
vn 0.000000 -1.000000 0.000000
vn 0.000000 0.791058 0.611741
vn 0.000000 0.791058 0.611741
vn 0.000000 0.791058 0.611741
vn 0.000000 0.791058 0.611741
vn 0.000000 1.000000 0.000000
vn 0.000000 1.000000 0.000000
vn 0.000000 1.000000 0.000000
vn 0.000000 1.000000 0.000000
vn 0.000000 0.791058 -0.611741
vn 0.000000 0.791058 -0.611741
vn 0.000000 0.791058 -0.611741
vn 0.000000 0.791058 -0.611741
vn 0.000000 0.001266 0.999999
vn 0.000000 0.001266 0.999999
vn 0.000000 0.001266 0.999999
vn 0.000000 0.001266 0.999999
vn 0.689531 0.265049 -0.674015
vn 0.689531 0.265049 -0.674015
vn 0.689531 0.265049 -0.674015
vn 0.689531 0.265049 -0.674015
vn 0.000000 0.001171 -0.999999
vn 0.000000 0.001171 -0.999999
vn 0.000000 0.001171 -0.999999
vn 0.000000 0.001171 -0.999999
vn -0.689531 0.265049 -0.674015
vn -0.689531 0.265049 -0.674015
vn -0.689531 0.265049 -0.674015
vn -0.689531 0.265049 -0.674015
vn 0.000000 -0.883590 0.468261
vn 0.000000 -0.883590 0.468261
vn 0.000000 -0.883590 0.468261
vn 0.000000 -0.883590 0.468261
vn 0.648594 0.542053 -0.534327
vn 0.648594 0.542053 -0.534327
vn 0.648594 0.542053 -0.534327
vn 0.648594 0.542053 -0.534327
vn 0.000000 0.596829 -0.802368
vn 0.000000 0.596829 -0.802368
vn 0.000000 0.596829 -0.802368
vn 0.000000 0.596829 -0.802368
vn -0.648593 0.542054 -0.534327
vn -0.648593 0.542054 -0.534327
vn -0.648593 0.542054 -0.534327
vn -0.648593 0.542054 -0.534327
vn 0.000000 -1.000000 0.000000
vn 0.000000 -1.000000 0.000000
vn 0.000000 -1.000000 0.000000
vn 0.000000 -1.000000 0.000000
vn 0.363091 0.931754 0.000000
vn 0.363091 0.931754 0.000000
vn 0.363091 0.931754 0.000000
vn 0.363091 0.931754 0.000000
vn 0.000000 1.000000 0.000000
vn 0.000000 1.000000 0.000000
vn 0.000000 1.000000 0.000000
vn 0.000000 1.000000 0.000000
vn -0.363091 0.931754 0.000000
vn -0.363091 0.931754 0.000000
vn -0.363091 0.931754 0.000000
vn -0.363091 0.931754 0.000000
s off
g Box_Small
usemtl initialShadingGroup
f 1/127/1 2/128/2 4/129/3 3/130/4
f 13/43/5 14/44/6 15/45/7 16/46/8
f 5/133/9 6/134/10 8/135/11 7/136/12
f 7/47/13 8/48/14 2/49/15 1/50/16
f 2/1/17 8/2/18 6/3/19 4/4/20
f 7/9/21 1/10/22 3/11/23 5/12/24
f 61/139/25 62/140/26 63/141/27 64/142/28
f 25/15/29 26/16/30 27/17/31 28/18/32
f 38/143/33 37/144/34 39/145/35 40/146/36
f 50/19/37 49/20/38 51/21/39 52/22/40
f 9/147/41 10/148/42 14/149/43 13/150/44
f 10/23/45 11/24/46 15/25/47 14/26/48
f 11/157/49 12/158/50 16/159/51 15/160/52
f 12/31/53 9/32/54 13/33/55 16/34/56
f 4/4/57 6/3/58 18/5/59 17/6/60
f 6/51/61 11/52/62 19/53/63 18/54/64
f 11/24/65 10/23/66 20/27/67 19/28/68
f 10/79/69 4/80/70 17/78/71 20/77/72
f 17/6/73 18/5/74 22/7/75 21/8/76
f 18/54/77 19/53/78 23/57/79 22/58/80
f 19/28/81 20/27/82 24/29/83 23/30/84
f 20/77/85 17/78/86 21/72/87 24/67/88
f 21/81/89 22/82/90 26/83/91 25/84/92
f 22/58/93 23/57/94 27/61/95 26/62/96
f 23/57/97 24/67/98 28/68/99 27/61/100
f 24/67/101 21/72/102 25/73/103 28/68/104
f 6/134/105 5/133/106 29/137/107 30/138/108
f 5/75/109 12/76/110 31/65/111 29/70/112
f 12/158/113 11/157/114 32/161/115 31/162/116
f 11/52/117 6/51/118 30/55/119 32/56/120
f 30/85/121 29/86/122 33/87/123 34/88/124
f 29/70/125 31/65/126 35/66/127 33/71/128
f 31/65/129 32/56/130 36/60/131 35/66/132
f 32/56/133 30/55/134 34/59/135 36/60/136
f 34/88/137 33/87/138 37/89/139 38/90/140
f 33/71/141 35/66/142 39/69/143 37/74/144
f 35/66/145 36/60/146 40/64/147 39/69/148
f 36/60/149 34/59/150 38/63/151 40/64/152
f 5/12/153 3/11/154 41/13/155 42/14/156
f 3/41/157 9/32/158 43/36/159 41/42/160
f 9/32/161 12/31/162 44/35/163 43/36/164
f 12/31/165 5/37/166 42/38/167 44/35/168
f 42/91/169 41/92/170 45/93/171 46/94/172
f 41/107/173 43/108/174 47/97/175 45/103/176
f 43/36/177 44/35/178 48/39/179 47/40/180
f 44/105/181 42/106/182 46/101/183 48/98/184
f 46/94/185 45/93/186 49/95/187 50/96/188
f 45/103/189 47/97/190 51/100/191 49/104/192
f 47/97/193 48/98/194 52/99/195 51/100/196
f 48/98/197 46/101/198 50/102/199 52/99/200
f 3/130/201 4/129/202 54/131/203 53/132/204
f 4/155/205 10/148/206 55/152/207 54/156/208
f 10/148/209 9/147/210 56/151/211 55/152/212
f 9/147/213 3/153/214 53/154/215 56/151/216
f 53/109/217 54/110/218 58/111/219 57/112/220
f 54/119/221 55/120/222 59/116/223 58/115/224
f 55/120/225 56/123/226 60/121/227 59/116/228
f 56/123/229 53/126/230 57/124/231 60/121/232
f 57/112/233 58/111/234 62/113/235 61/114/236
f 58/115/237 59/116/238 63/117/239 62/118/240
f 59/116/241 60/121/242 64/122/243 63/117/244
f 60/121/245 57/124/246 61/125/247 64/122/248
