# This file uses meters as units for non-parametric coordinates.

mtllib StreetLight_Blockout.mtl
g default
v -278.715607 -180.307251 7.684734
v -263.346161 -180.307251 7.684734
v -278.715607 381.963318 7.684734
v -263.346161 381.963318 7.684734
v -278.715607 381.963318 -7.684734
v -263.346161 381.963318 -7.684734
v -278.715607 -180.307251 -7.684734
v -263.346161 -180.307251 -7.684734
v -278.715607 353.932190 7.684734
v -278.715607 353.932190 -7.684734
v -263.346161 353.932190 -7.684734
v -263.346161 353.932190 7.684734
v -278.715607 367.300812 -7.684734
v -278.715607 367.300812 7.684734
v -263.346161 367.300812 7.684734
v -263.346161 367.300812 -7.684734
v -263.346161 367.300812 -233.762863
v -278.715607 367.300812 -233.762863
v -263.346161 353.932190 -233.762863
v -278.715607 353.932190 -233.762863
v -259.527100 372.744415 -238.823517
v -282.534698 372.744415 -238.823517
v -259.527100 348.488556 -238.823517
v -282.534698 348.488556 -238.823517
v -259.527100 372.744415 -282.633759
v -282.534698 372.744415 -282.633759
v -259.527100 348.488556 -282.633759
v -282.534698 348.488556 -282.633759
v -282.534698 342.906616 -246.556946
v -259.527100 342.906616 -246.556946
v -282.534698 342.906616 -274.900330
v -259.527100 342.906616 -274.900330
vt 0.031421 0.001699
vt 0.053920 0.001699
vt 0.053920 0.783768
vt 0.031421 0.783768
vt 0.053920 0.803338
vt 0.031421 0.803338
vt 0.384875 0.783768
vt 0.384875 0.803338
vt 0.053920 0.824803
vt 0.031421 0.824803
vt 0.392283 0.775799
vt 0.392283 0.811307
vt 0.456416 0.775799
vt 0.456416 0.811307
vt 0.403604 0.767628
vt 0.445095 0.767628
vt 0.866584 0.001699
vt 0.889084 0.001699
vt 0.889084 0.783768
vt 0.866584 0.783768
vt 0.889084 0.803338
vt 0.866584 0.803338
vt 0.889084 0.824803
vt 0.866584 0.824803
vt 0.535630 0.803338
vt 0.535630 0.783768
vt 0.528222 0.811307
vt 0.528222 0.775799
vt 0.464089 0.811307
vt 0.464089 0.775799
vt 0.475410 0.767628
vt 0.516901 0.767628
vt 0.895877 0.787760
vt 0.918376 0.787760
vt 0.918376 0.810259
vt 0.895877 0.810259
vt 0.867243 0.828794
vt 0.889742 0.828794
vt 0.889742 0.851294
vt 0.867243 0.851294
vt 0.931581 0.001699
vt 0.954080 0.001699
vt 0.954080 0.332653
vt 0.931581 0.332653
vt 0.959671 0.340062
vt 0.925990 0.340062
vt 0.959671 0.404195
vt 0.925990 0.404195
vt 0.992417 0.810682
vt 0.969918 0.810682
vt 0.969918 0.479728
vt 0.992417 0.479728
vt 0.964327 0.472320
vt 0.998008 0.472320
vt 0.964327 0.460999
vt 0.998008 0.460999
vt 0.964327 0.419507
vt 0.998008 0.419507
vt 0.964327 0.408186
vt 0.998008 0.408186
vt 0.001992 0.001699
vt 0.024491 0.001699
vt 0.024491 0.783768
vt 0.001992 0.783768
vt 0.024491 0.803338
vt 0.001992 0.803338
vt 0.024491 0.824803
vt 0.001992 0.824803
vt 0.896756 0.001699
vt 0.919255 0.001699
vt 0.919255 0.783768
vt 0.896756 0.783768
vt 0.839643 0.851294
vt 0.839643 0.828794
vt 0.861107 0.828794
vt 0.861107 0.851294
vt 0.924511 0.408186
vt 0.958192 0.408186
vt 0.958192 0.443694
vt 0.924511 0.443694
vn 0.000000 0.000000 1.000000
vn 0.000000 0.000000 1.000000
vn 0.000000 0.000000 1.000000
vn 0.000000 0.000000 1.000000
vn 0.000000 1.000000 0.000000
vn 0.000000 1.000000 0.000000
vn 0.000000 1.000000 0.000000
vn 0.000000 1.000000 0.000000
vn 0.000000 0.000000 -1.000000
vn 0.000000 0.000000 -1.000000
vn 0.000000 0.000000 -1.000000
vn 0.000000 0.000000 -1.000000
vn 0.000000 -1.000000 0.000000
vn 0.000000 -1.000000 0.000000
vn 0.000000 -1.000000 0.000000
vn 0.000000 -1.000000 0.000000
vn 1.000000 0.000000 0.000000
vn 1.000000 0.000000 0.000000
vn 1.000000 0.000000 0.000000
vn 1.000000 0.000000 0.000000
vn -1.000000 0.000000 0.000000
vn -1.000000 0.000000 0.000000
vn -1.000000 0.000000 0.000000
vn -1.000000 0.000000 0.000000
vn -1.000000 0.000000 0.000000
vn -1.000000 0.000000 0.000000
vn -1.000000 0.000000 0.000000
vn -1.000000 0.000000 0.000000
vn 0.000000 0.000000 -1.000000
vn 0.000000 0.000000 -1.000000
vn 0.000000 0.000000 -1.000000
vn 0.000000 0.000000 -1.000000
vn 1.000000 0.000000 0.000000
vn 1.000000 0.000000 0.000000
vn 1.000000 0.000000 0.000000
vn 1.000000 0.000000 0.000000
vn 0.000000 0.000000 1.000000
vn 0.000000 0.000000 1.000000
vn 0.000000 0.000000 1.000000
vn 0.000000 0.000000 1.000000
vn 0.000000 0.000000 -1.000000
vn 0.000000 0.000000 -1.000000
vn 0.000000 0.000000 -1.000000
vn 0.000000 0.000000 -1.000000
vn 0.000000 1.000000 0.000000
vn 0.000000 1.000000 0.000000
vn 0.000000 1.000000 0.000000
vn 0.000000 1.000000 0.000000
vn 1.000000 0.000000 0.000000
vn 1.000000 0.000000 0.000000
vn 1.000000 0.000000 0.000000
vn 1.000000 0.000000 0.000000
vn 0.000000 -1.000000 0.000000
vn 0.000000 -1.000000 0.000000
vn 0.000000 -1.000000 0.000000
vn 0.000000 -1.000000 0.000000
vn -1.000000 0.000000 0.000000
vn -1.000000 0.000000 0.000000
vn -1.000000 0.000000 0.000000
vn -1.000000 0.000000 0.000000
vn 0.000000 0.680876 0.732399
vn 0.000000 0.680876 0.732399
vn 0.000000 0.680876 0.732399
vn 0.000000 0.680876 0.732399
vn 0.798212 0.000000 0.602376
vn 0.798212 0.000000 0.602376
vn 0.798212 0.000000 0.602376
vn 0.798212 0.000000 0.602376
vn 0.000000 -0.680873 0.732402
vn 0.000000 -0.680873 0.732402
vn 0.000000 -0.680873 0.732402
vn 0.000000 -0.680873 0.732402
vn -0.798209 0.000000 0.602380
vn -0.798209 0.000000 0.602380
vn -0.798209 0.000000 0.602380
vn -0.798209 0.000000 0.602380
vn 0.000000 1.000000 0.000000
vn 0.000000 1.000000 0.000000
vn 0.000000 1.000000 0.000000
vn 0.000000 1.000000 0.000000
vn 1.000000 0.000000 0.000000
vn 1.000000 0.000000 0.000000
vn 1.000000 0.000000 0.000000
vn 1.000000 0.000000 0.000000
vn 0.000000 -1.000000 0.000000
vn 0.000000 -1.000000 0.000000
vn 0.000000 -1.000000 0.000000
vn 0.000000 -1.000000 0.000000
vn -1.000000 0.000000 0.000000
vn -1.000000 0.000000 0.000000
vn -1.000000 0.000000 0.000000
vn -1.000000 0.000000 0.000000
vn 0.000000 -0.810845 0.585262
vn 0.000000 -0.810845 0.585262
vn 0.000000 -0.810845 0.585262
vn 0.000000 -0.810845 0.585262
vn -1.000000 0.000000 0.000000
vn -1.000000 0.000000 0.000000
vn -1.000000 0.000000 0.000000
vn -1.000000 0.000000 0.000000
vn 0.000000 -0.810845 -0.585262
vn 0.000000 -0.810845 -0.585262
vn 0.000000 -0.810845 -0.585262
vn 0.000000 -0.810845 -0.585262
vn 1.000000 0.000004 0.000000
vn 1.000000 0.000004 0.000000
vn 1.000000 0.000004 0.000000
vn 1.000000 0.000004 0.000000
s 1
g StreetLight
usemtl lambert6SG
f 1/61/1 2/62/2 12/63/3 9/64/4
s off
f 3/33/5 4/34/6 6/35/7 5/36/8
f 10/69/9 11/70/10 8/71/11 7/72/12
f 7/37/13 8/38/14 2/39/15 1/40/16
s 2
f 2/1/17 8/2/18 11/3/19 12/4/20
s 3
f 7/17/21 1/18/22 9/19/23 10/20/24
f 13/22/25 14/21/26 3/23/27 5/24/28
s off
f 5/73/29 6/74/30 16/75/31 13/76/32
s 2
f 15/6/33 16/5/34 6/9/35 4/10/36
s 1
f 14/66/37 15/65/38 4/67/39 3/68/40
s 3
f 10/20/24 9/19/23 14/21/26 13/22/25
s 1
f 9/64/4 12/63/3 15/65/38 14/66/37
s 2
f 12/4/20 11/3/19 16/5/34 15/6/33
s off
f 26/77/41 25/78/42 27/79/43 28/80/44
f 13/41/45 16/42/46 17/43/47 18/44/48
f 16/5/49 11/3/50 19/7/51 17/8/52
f 11/49/53 10/50/54 20/51/55 19/52/56
f 10/20/57 13/22/58 18/25/59 20/26/60
f 18/44/61 17/43/62 21/45/63 22/46/64
f 17/8/65 19/7/66 23/11/67 21/12/68
f 19/52/69 20/51/70 24/53/71 23/54/72
f 20/26/73 18/25/74 22/27/75 24/28/76
f 22/46/77 21/45/78 25/47/79 26/48/80
f 21/12/81 23/11/82 27/13/83 25/14/84
usemtl lambert7SG
f 30/56/85 29/55/86 31/57/87 32/58/88
usemtl lambert6SG
f 24/28/89 22/27/90 26/29/91 28/30/92
usemtl lambert7SG
f 23/54/93 24/53/94 29/55/95 30/56/96
f 24/28/97 28/30/98 31/31/99 29/32/100
f 28/59/101 27/60/102 32/58/103 31/57/104
f 27/13/105 23/11/106 30/15/107 32/16/108
